:SAMPLES-PER-SECOND 30
:FULLY-SPECIFIED
:DEGREES
544
root  -14.974 38.6926 -11.9807 -126.862 -83.3539 120.077
RightUpLeg  14.4182 -13.0172 -9.88602
RightLeg  39.428 9.57048 8.12718
RightFoot  -6.52108 -0.728336 15.1884
RightToes  0.00048216 0.542163 -0.142577
Spine  13.6179 5.36984 4.93496
Spine1  11.2674 11.1871 -16.4177
HEad  23.7814 55.6293 -4.50363
LeftShoulder1  7.17015 -10.9709 -43.0648
LeftArm  -15.3391 31.8572 -27.8595
LeftForeArm  21.6281 -27.9581 -4.86051
LeftHand  -0.25398 0.0180481 5.50724
RightShoulder  4.54766 8.52982 31.8486
RightArm  -12.1428 14.1792 29.1109
RightForeArm  1.20645 52.4972 14.6366
RightHand  -0.936006 0.140078 -19.5536
LeftUpLeg  -15.4143 7.57633 -8.54551
LeftLeg  7.61894 14.2574 -5.05065
LeftFoot  7.27213 -0.599925 3.39591
LeftToes  1.06243e-005 4.65856e-005 -8.18505e-006
545
root  -13.6793 38.5083 -11.6145 -138.51 -82.3841 131.811
RightUpLeg  17.3807 -13.5464 -9.12021
RightLeg  32.0731 8.96175 5.80554
RightFoot  -14.2871 0.0842173 7.6778
RightToes  0.00048216 0.542163 -0.142577
Spine  13.3004 5.76678 6.7283
Spine1  11.4641 12.0831 -17.0634
HEad  24.0229 55.8673 -4.81626
LeftShoulder1  7.19794 -10.8955 -43.4807
LeftArm  -16.1565 32.4357 -27.7876
LeftForeArm  21.4961 -28.2549 -4.93488
LeftHand  -0.25398 0.0180481 5.50724
RightShoulder  4.51079 8.56148 31.4413
RightArm  -10.0166 16.8454 28.6
RightForeArm  5.11857 53.567 14.9267
RightHand  -0.676424 -0.955886 -17.5324
LeftUpLeg  -15.4757 3.55126 -6.75351
LeftLeg  3.20421 20.6608 -7.21119
LeftFoot  8.92905 -0.382936 1.85815
LeftToes  1.06243e-005 4.65856e-005 -8.18505e-006
546
root  -12.2055 38.3294 -11.1839 -153.594 -81.8668 147.073
RightUpLeg  18.8411 -15.5833 -7.98099
RightLeg  25.9541 7.03754 3.46092
RightFoot  -21.7398 0.0454824 1.85992
RightToes  0.00048216 0.542163 -0.142577
Spine  13.8655 5.62955 10.1474
Spine1  11.3851 12.6955 -18.269
HEad  23.6978 56.1387 -5.72925
LeftShoulder1  7.26147 -10.84 -44.0637
LeftArm  -16.561 31.9375 -27.7232
LeftForeArm  21.2599 -27.6995 -4.82252
LeftHand  -0.25398 0.0180481 5.50724
RightShoulder  4.53083 8.63811 31.3697
RightArm  -7.88812 19.3541 27.9763
RightForeArm  10.6955 53.7886 14.581
RightHand  -0.5552 -1.20396 -15.2811
LeftUpLeg  -15.8722 1.68964 -4.35426
LeftLeg  -0.725275 24.3738 -8.85714
LeftFoot  8.48958 0.330199 -2.24657
LeftToes  1.06243e-005 4.65856e-005 -8.18505e-006
547
root  -10.6161 38.2062 -10.7041 -172.391 -82.0903 166.083
RightUpLeg  18.0892 -17.9153 -5.59063
RightLeg  23.1063 5.98549 2.64212
RightFoot  -25.2206 -0.231017 -0.561515
RightToes  0.00048216 0.542163 -0.142577
Spine  14.9851 4.7612 14.5356
Spine1  11.3 12.5886 -19.2187
HEad  22.4531 56.5297 -7.54573
LeftShoulder1  7.32655 -10.7593 -44.7399
LeftArm  -16.6759 30.4485 -27.8486
LeftForeArm  20.8789 -26.303 -4.53257
LeftHand  -0.25398 0.0180481 5.50724
RightShoulder  4.60503 8.76572 31.588
RightArm  -5.80559 21.3167 27.4237
RightForeArm  15.145 52.8686 13.6876
RightHand  -0.622765 -0.367236 -14.3392
LeftUpLeg  -16.5992 1.83501 -1.75137
LeftLeg  -3.31452 23.3588 -9.25361
LeftFoot  5.27764 1.18763 -8.43196
LeftToes  1.06243e-005 4.65856e-005 -8.18505e-006
548
root  -9.05683 38.1893 -10.2507 168.463 -82.7576 -174.591
RightUpLeg  15.7701 -19.3502 -2.55887
RightLeg  22.7152 5.10752 2.5735
RightFoot  -25.8395 -0.333612 -1.25131
RightToes  0.00048216 0.542163 -0.142577
Spine  15.8574 3.63139 17.6555
Spine1  11.5032 11.6306 -18.643
HEad  20.6321 56.7961 -9.86414
LeftShoulder1  7.41205 -10.7615 -45.2759
LeftArm  -16.5371 28.7094 -28.3756
LeftForeArm  20.3376 -24.5801 -4.18819
LeftHand  -0.25398 0.0180481 5.50724
RightShoulder  4.73821 8.97971 32.0131
RightArm  -3.7234 22.1695 27.1445
RightForeArm  16.3007 50.527 12.4076
RightHand  -0.787158 0.760489 -14.9138
LeftUpLeg  -17.5293 2.15117 0.22157
LeftLeg  -4.5724 18.7765 -8.65853
LeftFoot  1.30734 1.55146 -13.9412
LeftToes  1.06243e-005 4.65856e-005 -8.18505e-006
549
root  -7.63484 38.3447 -9.89972 155.194 -83.7886 -161.395
RightUpLeg  13.4148 -21.0233 -1.01267
RightLeg  22.8942 4.79563 2.6715
RightFoot  -24.9732 -0.360515 -1.60499
RightToes  0.00048216 0.542163 -0.142577
Spine  16.5178 2.84314 17.9519
Spine1  11.9338 10.2638 -16.4706
HEad  19.3545 56.3764 -11.4344
LeftShoulder1  7.51611 -10.9422 -45.3421
LeftArm  -15.9826 27.3491 -29.1259
LeftForeArm  20.0075 -23.1447 -3.91604
LeftHand  -0.25398 0.0180481 5.50724
RightShoulder  4.94975 9.27006 32.8063
RightArm  -1.9058 21.4597 27.2385
RightForeArm  14.972 46.5546 10.7784
RightHand  -0.928943 1.5275 -15.7123
LeftUpLeg  -18.1002 1.79988 0.822267
LeftLeg  -4.57651 13.915 -7.77841
LeftFoot  -0.702285 1.50923 -16.0212
LeftToes  1.06243e-005 4.65856e-005 -8.18505e-006
550
root  -6.38057 38.6951 -9.65003 151.014 -85.0801 -157.509
RightUpLeg  11.6964 -22.1073 -0.981762
RightLeg  22.4299 4.13008 2.79015
RightFoot  -22.9117 -0.366152 -2.08845
RightToes  0.00048216 0.542163 -0.142577
Spine  17.2712 2.57433 16.1154
Spine1  12.3766 9.14733 -13.8898
HEad  19.3681 55.0287 -11.5779
LeftShoulder1  7.57496 -11.1929 -44.9023
LeftArm  -15.1516 26.4409 -29.4957
LeftForeArm  20.48 -22.4715 -3.78903
LeftHand  -0.25398 0.0180481 5.50724
RightShoulder  5.20804 9.54116 33.976
RightArm  -0.660361 19.2178 28.0141
RightForeArm  12.761 40.5181 8.7696
RightHand  -1.00034 2.0188 -15.8239
LeftUpLeg  -17.7737 1.27392 0.369185
LeftLeg  -3.37974 11.51 -7.09761
LeftFoot  -0.315245 1.4432 -14.8795
LeftToes  1.06243e-005 4.65856e-005 -8.18505e-006
551
root  -5.30247 39.1436 -9.43063 155.108 -86.0716 -161.701
RightUpLeg  10.2955 -21.0282 -1.18856
RightLeg  20.9897 2.13896 3.01783
RightFoot  -20.044 -0.31249 -2.31471
RightToes  0.00048216 0.542163 -0.142577
Spine  17.7423 2.65906 14.0164
Spine1  12.6583 8.55155 -12.0739
HEad  20.3431 53.1412 -10.9248
LeftShoulder1  7.53795 -11.317 -44.2821
LeftArm  -14.5127 25.9095 -29.0139
LeftForeArm  21.6291 -22.7869 -3.78304
LeftHand  -0.25398 0.0180481 5.50724
RightShoulder  5.42333 9.69797 35.1183
RightArm  0.515763 15.9538 29.9106
RightForeArm  8.93773 31.9962 6.45273
RightHand  -1.03072 2.43079 -15.4771
LeftUpLeg  -17.6256 2.43969 -0.605519
LeftLeg  0.67453 10.4968 -5.73901
LeftFoot  0.0286573 1.30498 -13.0588
LeftToes  1.06243e-005 4.65856e-005 -8.18505e-006
552
root  -4.39933 39.571 -9.17546 163.543 -86.4798 -169.671
RightUpLeg  8.85293 -17.5833 -1.09146
RightLeg  18.6622 -1.23031 3.59101
RightFoot  -17.1851 -0.218158 -1.98278
RightToes  0.00048216 0.542163 -0.142577
Spine  17.4051 2.85131 12.711
Spine1  12.6994 8.32411 -11.2811
HEad  21.5069 51.2461 -10.3651
LeftShoulder1  7.4328 -11.2644 -43.7966
LeftArm  -14.536 25.8327 -27.8031
LeftForeArm  22.7419 -23.9123 -3.9203
LeftHand  -0.25398 0.0180481 5.50724
RightShoulder  5.55375 9.74172 35.9498
RightArm  -0.469726 12.1688 32.5003
RightForeArm  5.05521 21.22 5.12912
RightHand  -0.983794 2.36093 -14.9267
LeftUpLeg  -18.1674 7.89045 -2.68177
LeftLeg  6.87066 6.40731 -2.67403
LeftFoot  -0.709226 1.11226 -11.8727
LeftToes  1.06243e-005 4.65856e-005 -8.18505e-006
553
root  -3.62541 39.9151 -8.86383 172.748 -86.431 -177.967
RightUpLeg  7.41683 -13.7553 -1.18246
RightLeg  15.998 -4.39521 4.46211
RightFoot  -14.8617 -0.138252 -1.22258
RightToes  0.00048216 0.542163 -0.142577
Spine  16.4801 3.06181 12.1201
Spine1  12.5595 8.33599 -11.1779
HEad  22.2003 49.4702 -10.2471
LeftShoulder1  7.31984 -11.1347 -43.497
LeftArm  -15.2409 26.1139 -26.4201
LeftForeArm  23.3115 -25.3447 -4.19404
LeftHand  -0.25398 0.0180481 5.50724
RightShoulder  5.65667 9.75405 36.6678
RightArm  -9.72401 7.82641 34.3225
RightForeArm  9.03242 9.79375 6.3985
RightHand  -0.737701 0.953424 -13.5762
LeftUpLeg  -18.9119 12.2934 -4.0291
LeftLeg  13.0656 2.82511 0.458953
LeftFoot  -2.08873 0.870148 -10.5644
LeftToes  1.06243e-005 4.65856e-005 -8.18505e-006
